<svg id="_1" data-name=" 1" xmlns="http://www.w3.org/2000/svg" viewBox="0 0 164.04 49.96"><defs><style>.cls-1,.cls-5{fill:#fff;}.cls-2{fill:#004584;}.cls-3{fill:#e49800;}.cls-4{fill:#d69a00;}.cls-5{font-size:9px;font-family:AvenirNextCyr-Medium, Avenir Next Cyr;}.cls-6{letter-spacing:-0.02em;}.cls-7{letter-spacing:0.01em;}.cls-8{letter-spacing:-0.01em;}.cls-9{letter-spacing:0.02em;}.cls-10{letter-spacing:-0.1em;}.cls-11{letter-spacing:-0.01em;}</style></defs><title>ac_ctc_logo</title><path class="cls-1" d="M23.09.45C18.93,2.61,7.82,8.83,1,16.89a4.1,4.1,0,0,0-1,3,64.59,64.59,0,0,0,8.8,27.27,4.08,4.08,0,0,0,3,1.94A101.66,101.66,0,0,0,38,49.1a4,4,0,0,0,2.67-1.69c2.25-3.23,7.43-12,9.48-26.59a4,4,0,0,0-.95-3.16C46.12,14.16,37.51,4.87,26.54.32A4.08,4.08,0,0,0,23.09.45Z"/><path class="cls-2" d="M23.38,3.94c-3.57,1.86-13.1,7.19-19,14.1a3.47,3.47,0,0,0-.83,2.58A55.36,55.36,0,0,0,11.14,44a3.49,3.49,0,0,0,2.53,1.66,87.17,87.17,0,0,0,22.46,0,3.44,3.44,0,0,0,2.29-1.45c1.93-2.77,6.37-10.26,8.13-22.79a3.41,3.41,0,0,0-.82-2.72c-2.6-3-10-11-19.39-14.86A3.52,3.52,0,0,0,23.38,3.94Z"/><path class="cls-3" d="M25.48,48.38a104.61,104.61,0,0,1-12.69-.79,4.16,4.16,0,0,1-3-2A59.72,59.72,0,0,1,1.6,20.34a4.17,4.17,0,0,1,1-3.08C8.88,9.85,19,4.14,23.06,2h0a4.15,4.15,0,0,1,3.53-.14c9.53,4,17.23,11.76,21,16.06a4.13,4.13,0,0,1,1,3.25C46.63,34.8,41.75,43,39.74,45.85A4.08,4.08,0,0,1,37,47.58,77.27,77.27,0,0,1,25.48,48.38Zm-2-45.59c-4,2.08-14,7.72-20.21,15a3.32,3.32,0,0,0-.79,2.45,58.84,58.84,0,0,0,8,24.9,3.34,3.34,0,0,0,2.41,1.59,93.35,93.35,0,0,0,24,0,3.3,3.3,0,0,0,2.18-1.37c2-2.83,6.76-10.87,8.64-24.27a3.26,3.26,0,0,0-.77-2.58C43.22,14.27,35.63,6.57,26.26,2.69a3.29,3.29,0,0,0-2.81.1Z"/><polyline class="cls-1" points="25.08 41.01 27.36 32.06 37.59 42.39 30.41 29.45 40.96 31.08 31.93 26.08 44.11 19.77 30.95 22.38 30.95 17.7 27.36 20.86 25.08 16.94 25.08 16.94 25.08 16.94 25.08 16.94 25.08 16.94 22.8 20.86 19.21 17.7 19.21 22.38 6.05 19.77 18.23 26.08 9.2 31.08 19.75 29.45 12.57 42.39 22.8 32.06 25.08 41.02"/><polyline class="cls-4" points="25.08 32.79 26.09 28.84 30.6 33.4 27.43 27.68 32.09 28.4 28.1 26.2 33.48 23.41 27.67 24.56 27.67 22.5 26.09 23.89 25.08 22.16 25.08 22.16 25.08 22.16 25.08 22.16 25.08 22.16 24.07 23.89 22.48 22.5 22.48 24.56 16.67 23.41 22.05 26.2 18.07 28.4 22.73 27.68 19.56 33.4 24.07 28.84 25.08 32.79"/><path class="cls-4" d="M81.72,21.5h-5L75,17.17H67L65.19,21.5H60.32L68.57,2.08h4.9ZM71,6.84l-2.89,7.22h5.75Z"/><path class="cls-4" d="M104.25,21.5H82.49V2.1h4.75V17.88h8.85V2.1h4.75V17.88h3.41Z"/><path class="cls-4" d="M125.91,21.62h-8.42a7.1,7.1,0,0,1-5.83-2.93,11.29,11.29,0,0,1-.3-13.43,7.28,7.28,0,0,1,6.1-3.3h8.45V6h-8.45a3.26,3.26,0,0,0-2.75,1.49,7.33,7.33,0,0,0,.21,8.92,3.12,3.12,0,0,0,2.57,1.25h8.42Z"/><path class="cls-4" d="M164,21.62h-8.41a7.14,7.14,0,0,1-5.84-2.93,11.29,11.29,0,0,1-.29-13.43A7.25,7.25,0,0,1,155.6,2H164V6H155.6a3.28,3.28,0,0,0-2.76,1.49,7.33,7.33,0,0,0,.22,8.92,3.09,3.09,0,0,0,2.57,1.25H164Z"/><polygon class="cls-4" points="147.41 1.96 128.74 1.96 128.74 5.96 136.09 5.96 136.09 21.5 140.09 21.5 140.09 5.96 147.41 5.96 147.41 1.96"/><text class="cls-5" transform="translate(60.32 34.95)"><tspan class="cls-6">А</tspan><tspan class="cls-7" x="6.18" y="0">т</tspan><tspan class="cls-8" x="10.39" y="0">т</tspan><tspan x="14.39" y="0">е</tspan><tspan class="cls-9" x="19.55" y="0">с</tspan><tspan x="24.16" y="0">тационный Центр</tspan><tspan x="0" y="10.8">Сварка</tspan><tspan class="cls-10" x="31.48" y="10.8">Т</tspan><tspan class="cls-11" x="35.74" y="10.8">е</tspan><tspan x="40.81" y="10.8">хСервис</tspan></text></svg>