<svg id="_1" data-name="1" xmlns="http://www.w3.org/2000/svg" viewBox="0 0 79.56 81.13"><defs><style>.cls-1{fill:#fff;}.cls-2{fill:#ffc92f;}</style></defs><title>logo_sasp</title><path class="cls-1" d="M24.64,50.58a5.25,5.25,0,0,1-3.78-1.45,5,5,0,0,1-1.49-3.73,4.88,4.88,0,0,1,1.51-3.73,5.37,5.37,0,0,1,3.8-1.41,5.66,5.66,0,0,1,2.07.38,3.92,3.92,0,0,1,1.6,1L26.74,43.3a1.89,1.89,0,0,0-.85-.67,2.85,2.85,0,0,0-1.13-.23,2.63,2.63,0,0,0-2,.85,3.35,3.35,0,0,0,0,4.32,2.61,2.61,0,0,0,2,.83,2.4,2.4,0,0,0,2.08-1L28.44,49A4.76,4.76,0,0,1,24.64,50.58Z"/><path class="cls-1" d="M29.22,50.31l4.11-9.79h2.29l4.07,9.79H37.06l-.76-1.92H32.51l-.72,1.92Zm4-3.82h2.46l-1.22-3.36Z"/><path class="cls-1" d="M46,50.58a5.25,5.25,0,0,1-3.78-1.45,4.94,4.94,0,0,1-1.49-3.73,4.88,4.88,0,0,1,1.51-3.73,5.37,5.37,0,0,1,3.8-1.41,5.66,5.66,0,0,1,2.07.38,3.82,3.82,0,0,1,1.59,1l-1.6,1.61a2,2,0,0,0-.85-.67,2.89,2.89,0,0,0-1.13-.23,2.63,2.63,0,0,0-2,.85,3,3,0,0,0-.8,2.15,3.1,3.1,0,0,0,.77,2.17,2.65,2.65,0,0,0,2,.83,2.41,2.41,0,0,0,2.08-1L49.84,49A4.76,4.76,0,0,1,46,50.58Z"/><path class="cls-1" d="M51.82,50.31V40.52h8.49v9.79H58V42.52H54.18v7.79Z"/><polygon class="cls-2" points="66.79 32.53 48.17 32.66 39.84 12.95 31.51 32.66 12.89 32.53 18.48 37.98 61.2 37.98 66.79 32.53"/><polygon class="cls-2" points="23.18 64.21 39.84 55.45 56.5 64.21 54.55 52.85 25.13 52.85 23.18 64.21"/><path class="cls-1" d="M8.47,22.32a2.26,2.26,0,0,1-1.41,1.12,2.29,2.29,0,0,1-1.77-.28,2.21,2.21,0,0,1-1.11-1.41,2.47,2.47,0,0,1,.91-2.48,1.54,1.54,0,0,1,.77-.33l.08.61a1.29,1.29,0,0,0-.56.21,1.64,1.64,0,0,0-.61,1.78,1.79,1.79,0,0,0,.86,1A1.8,1.8,0,0,0,7,22.82,1.55,1.55,0,0,0,8,22a1.36,1.36,0,0,0,.09-1.32l.53-.25A2,2,0,0,1,8.47,22.32Z"/><path class="cls-1" d="M9.76,20l-3.49-2.7.38-.49L9.41,19h0L8,15.08l.41-.53,3.5,2.7-.38.48L8.78,15.59h0l1.41,3.9Z"/><path class="cls-1" d="M14.41,14.82a2.22,2.22,0,0,1-1.65.71,2.43,2.43,0,0,1-2.34-2.38A2.49,2.49,0,0,1,11.94,11a1.55,1.55,0,0,1,.83-.12l-.08.61a1.23,1.23,0,0,0-.59.06,1.4,1.4,0,0,0-.55.35,1.53,1.53,0,0,0-.5,1.21,2,2,0,0,0,1.77,1.8A1.52,1.52,0,0,0,14,14.43a1.36,1.36,0,0,0,.43-1.25l.59-.11A2,2,0,0,1,14.41,14.82Z"/><path class="cls-1" d="M17,12.4,14.63,9.35l-1.12.87-.33-.43,2.71-2.12.34.43L15.11,9l2.38,3Z"/><path class="cls-1" d="M19.37,10.65,17.05,6.9l2.4-1.49.29.46L17.85,7l.7,1.13,1.77-1.1.28.45-1.77,1.1.77,1.25,2-1.22.29.47Z"/><path class="cls-1" d="M22.83,8.54,21,4.51l.88-.39L24.5,6.68h0l-.18-3.62.87-.39,1.8,4-.57.25-1.5-3.37h0l.16,4-.36.16L21.89,4.92h0l1.5,3.38Z"/><path class="cls-1" d="M27.8,6.41l.65-4.77L29,1.49l3,3.73-.67.19-.73-.92-2,.57-.13,1.16Zm.86-1.94L30.25,4,28.9,2.26Z"/><path class="cls-1" d="M34.29,4.8,35.79.22l.56,0,2.29,4.22L38,4.46l-.55-1-2.09.19L35,4.73Zm1.19-1.75,1.65-.15-1-2Z"/><path class="cls-1" d="M40.1,4.43,40.16.56l-1.41,0V0L42.2.05V.59l-1.41,0-.06,3.87Z"/><path class="cls-1" d="M44,4.67,44.51.83,43.1.66l.07-.54,3.42.42-.07.54L45.12.9l-.48,3.85Z"/><path class="cls-1" d="M46.94,5.1,48,.81l2.76.65L50.58,2l-2.15-.5-.3,1.28,2,.48L50,3.76l-2-.48-.33,1.43,2.24.53-.12.53Z"/><path class="cls-1" d="M52.81,6.92a2.26,2.26,0,0,1-1.35-1.19,2.22,2.22,0,0,1,0-1.79,2.22,2.22,0,0,1,1.2-1.34,2.33,2.33,0,0,1,1.8,0,2.46,2.46,0,0,1,.79.48,1.64,1.64,0,0,1,.46.71L55.09,4a1.23,1.23,0,0,0-.3-.51,1.52,1.52,0,0,0-.55-.35,1.57,1.57,0,0,0-1.31.06,1.77,1.77,0,0,0-.87,1,1.8,1.8,0,0,0,0,1.35,1.5,1.5,0,0,0,1,.89,1.37,1.37,0,0,0,1.32-.14l.34.49A1.94,1.94,0,0,1,52.81,6.92Z"/><path class="cls-1" d="M56.1,8.25l1.69-3.49-1.27-.61.24-.49,3.1,1.51-.24.48L58.35,5l-1.7,3.49Z"/><path class="cls-1" d="M58,9.16l4-2.67.47.3-.81,4.74-.58-.38L61.26,10,59.5,8.86l-1,.67Zm2-.64,1.39.9.43-2.19Z"/><path class="cls-1" d="M64.21,15.06l.68-.79-2.57-2.2,2.87-3.35.47.4-2.51,2.94,1.68,1.43,2.51-2.94.47.4L65.3,13.89l.38.32-1,1.22Z"/><path class="cls-1" d="M66,15.37l3.3-2.94.41.46-2.61,2.33h0l4.09-.67.45.51L68.39,18,68,17.54l2.61-2.32h0l-4.09.67Z"/><path class="cls-1" d="M69.24,19.1l3.66-2.47.34.51-2.9,2h0L74.49,19l.39.57L71.22,22l-.35-.52,2.9-2h0l-4.14.11Z"/><path class="cls-1" d="M0,45.71A2.27,2.27,0,0,1,.5,44a2.24,2.24,0,0,1,1.59-.82,2.22,2.22,0,0,1,1.73.49,2.51,2.51,0,0,1,.73,2.53,1.53,1.53,0,0,1-.44.73l-.42-.45A1.22,1.22,0,0,0,4,46a1.38,1.38,0,0,0,.07-.64,1.58,1.58,0,0,0-.63-1.16,1.82,1.82,0,0,0-1.3-.33,1.86,1.86,0,0,0-1.22.58,1.57,1.57,0,0,0-.38,1.25,1.36,1.36,0,0,0,.71,1.12L1,47.3A1.93,1.93,0,0,1,0,45.71Z"/><path class="cls-1" d="M.6,48.93l4.3-1,.35,1.48a1.67,1.67,0,0,1,0,1,.94.94,0,0,1-.73.59.94.94,0,0,1-.64-.07,1,1,0,0,1-.47-.47h0a1.09,1.09,0,0,1-.17.76,1,1,0,0,1-.65.44,1.06,1.06,0,0,1-1-.24,2.05,2.05,0,0,1-.59-1.09Zm.66.48.17.75a2.52,2.52,0,0,0,.18.49.9.9,0,0,0,.33.34.63.63,0,0,0,.49.06c.48-.11.64-.51.48-1.18l-.19-.81Zm2-.47.18.78a1,1,0,0,0,.31.57.61.61,0,0,0,.56.12c.43-.1.57-.47.42-1.09l-.16-.69Z"/><path class="cls-1" d="M1.68,53.25l4.8.23.2.52L3.23,57.34,3,56.68l.86-.8-.75-2-1.17,0Zm2,.68.58,1.55L5.91,54Z"/><path class="cls-1" d="M3.9,58.69l3.9-2.07.63,1.19A2,2,0,0,1,8.71,59a1.09,1.09,0,0,1-.62.8,1.05,1.05,0,0,1-1,0,2,2,0,0,1-.82-.89l-.33-.61-1.71.91Zm2.46-.61.31.58c.32.61.7.8,1.12.57s.47-.63.15-1.23l-.31-.59Z"/><path class="cls-1" d="M7.32,64.56a2.22,2.22,0,0,1-.45-1.73,2.27,2.27,0,0,1,1-1.52,2.23,2.23,0,0,1,1.73-.44,2.29,2.29,0,0,1,1.51,1,2.34,2.34,0,0,1,.46,1.74,2.2,2.2,0,0,1-1,1.51,2.2,2.2,0,0,1-1.74.44A2.26,2.26,0,0,1,7.32,64.56Zm.45-.32a1.55,1.55,0,0,0,1.12.69,1.78,1.78,0,0,0,1.29-.37,1.75,1.75,0,0,0,.75-1.11,1.54,1.54,0,0,0-.29-1.28,1.52,1.52,0,0,0-1.12-.68,1.8,1.8,0,0,0-1.29.36A1.85,1.85,0,0,0,7.47,63,1.57,1.57,0,0,0,7.77,64.24Z"/><path class="cls-1" d="M11.66,69.49l1.28-1.24a4,4,0,0,1-.8-.63,1.7,1.7,0,0,1-.54-1,1.13,1.13,0,0,1,.42-.89l1.12-1.08.42.44-1,1a.75.75,0,0,0,0,1.19,2.59,2.59,0,0,0,.75.59l1.52-1.46.42.45-3.17,3.06Z"/><path class="cls-1" d="M13.57,71.3l2.75-3.45.48.39-1.15,1.44,1.75,1.4,1.15-1.45L19,70l-2.75,3.45-.48-.39,1.26-1.58-1.75-1.39-1.26,1.58Z"/><path class="cls-1" d="M19.77,75.83a2.31,2.31,0,0,1-1.12-1.4,2.27,2.27,0,0,1,.27-1.78,2.22,2.22,0,0,1,1.4-1.11,2.5,2.5,0,0,1,2.91,1.68A2.21,2.21,0,0,1,23,75a2.24,2.24,0,0,1-1.41,1.12A2.32,2.32,0,0,1,19.77,75.83Zm.28-.48a1.55,1.55,0,0,0,1.3.17,1.79,1.79,0,0,0,1-.86,1.83,1.83,0,0,0,.23-1.32,1.56,1.56,0,0,0-.8-1,1.52,1.52,0,0,0-1.29-.16,1.77,1.77,0,0,0-1,.86,1.79,1.79,0,0,0-.24,1.32A1.55,1.55,0,0,0,20.05,75.35Z"/><path class="cls-1" d="M23.5,77.63l1.7-4.07,2.37,1-.21.5-1.8-.76-1.49,3.58Z"/><path class="cls-1" d="M29.13,79.77a2.29,2.29,0,0,1-1.43-1.08,2.31,2.31,0,0,1,2.67-3.39,2.29,2.29,0,0,1,1.45,1.07A2.18,2.18,0,0,1,32,78.15a2.24,2.24,0,0,1-1.08,1.43A2.28,2.28,0,0,1,29.13,79.77Zm.15-.54a1.56,1.56,0,0,0,1.31-.16,2,2,0,0,0,.67-2.43A1.68,1.68,0,0,0,28.93,76a1.95,1.95,0,0,0-.67,2.43A1.56,1.56,0,0,0,29.28,79.23Z"/><path class="cls-1" d="M35.46,80.9l.29-4.4,3.44.22-.29,4.41-.61,0,.25-3.87-2.21-.14-.25,3.86Z"/><path class="cls-1" d="M40.9,81.11l-.26-4.41L42,76.62a1.89,1.89,0,0,1,1.17.24,1.23,1.23,0,0,1,.09,1.86,1.94,1.94,0,0,1-1.15.37l-.69,0,.11,1.93Zm.47-2.5.66,0c.68,0,1-.3,1-.78s-.38-.68-1-.64l-.67,0Z"/><path class="cls-1" d="M47.67,80.45a2.29,2.29,0,0,1-1.77-.32,2.24,2.24,0,0,1-1-1.51,2.21,2.21,0,0,1,.32-1.77,2.28,2.28,0,0,1,1.51-.95,2.36,2.36,0,0,1,1.78.3,2.21,2.21,0,0,1,1,1.51,2.26,2.26,0,0,1-.32,1.77A2.32,2.32,0,0,1,47.67,80.45Zm-.11-.55a1.53,1.53,0,0,0,1.09-.73,1.78,1.78,0,0,0,.21-1.33,1.84,1.84,0,0,0-.7-1.15,1.57,1.57,0,0,0-1.29-.26,1.54,1.54,0,0,0-1.08.73,1.79,1.79,0,0,0-.21,1.33,1.81,1.81,0,0,0,.7,1.15A1.54,1.54,0,0,0,47.56,79.9Z"/><path class="cls-1" d="M51.75,79.33l-1.49-4.15.58-.21L52,78.26h0l.9-4.05.64-.23,1.5,4.16-.58.2-1.19-3.29h0l-.91,4Z"/><path class="cls-1" d="M58,76.86a1.89,1.89,0,0,1-1.66.12l.22-.57a1.23,1.23,0,0,0,1.19,0,1.07,1.07,0,0,0,.52-.53.72.72,0,0,0,0-.67q-.35-.69-1.35-.18l-.26.14-.24-.47.26-.13c.6-.31.78-.68.55-1.13a.67.67,0,0,0-.44-.35,1,1,0,0,0-.64.11,1.11,1.11,0,0,0-.65.82L55,73.86a1.68,1.68,0,0,1,1-1.13,1.65,1.65,0,0,1,1.09-.2,1.07,1.07,0,0,1,.74.6,1,1,0,0,1,.11.68,1.06,1.06,0,0,1-.34.57h0a1.26,1.26,0,0,1,.77,0,1,1,0,0,1,.56.51,1.17,1.17,0,0,1,0,1.09A1.87,1.87,0,0,1,58,76.86Z"/><path class="cls-1" d="M61,75.11l-2.47-3.66,1.26-.85a1.75,1.75,0,0,1,1-.32.91.91,0,0,1,.81.47.92.92,0,0,1,.17.63,1,1,0,0,1-.27.6h0a1.17,1.17,0,0,1,.77-.12,1,1,0,0,1,.64.46,1.07,1.07,0,0,1,.13,1,1.94,1.94,0,0,1-.81.94ZM60,72.65l.67-.45a1,1,0,0,0,.42-.49.61.61,0,0,0-.08-.56c-.25-.37-.64-.37-1.17,0l-.59.4Zm1.14,1.68.64-.43a2,2,0,0,0,.4-.35.91.91,0,0,0,.2-.42.59.59,0,0,0-.12-.47c-.27-.41-.7-.43-1.28,0l-.68.47Z"/><path class="cls-1" d="M66.67,70.91a2.27,2.27,0,0,1-1.68.63,2.43,2.43,0,0,1-2.24-2.47,2.51,2.51,0,0,1,2.49-2.25,2.21,2.21,0,0,1,1.61.8,2.27,2.27,0,0,1,.63,1.68A2.31,2.31,0,0,1,66.67,70.91Zm-.37-.41a1.57,1.57,0,0,0,.56-1.19,1.86,1.86,0,0,0-.5-1.25,1.79,1.79,0,0,0-1.19-.62,1.55,1.55,0,0,0-1.25.43,1.57,1.57,0,0,0-.55,1.19,1.82,1.82,0,0,0,.5,1.24,1.87,1.87,0,0,0,1.19.63A1.59,1.59,0,0,0,66.3,70.5Z"/><path class="cls-1" d="M70,69l-1.23-1,.23-.28a3.9,3.9,0,0,0-1.62-2.27l-.9-.74,1.84-2.24,3,2.46.31-.39,1.23,1-.35.43-.81-.66-2.14,2.59.81.67Zm-.53-1.86L71,65.37l-2.56-2.12-1.07,1.3.51.43A4.7,4.7,0,0,1,69.51,67.12Z"/><path class="cls-1" d="M74.24,61.71a2.24,2.24,0,0,1-3.19.77A2.27,2.27,0,0,1,70,61a2.38,2.38,0,0,1,.33-1.78,2.44,2.44,0,0,1,.64-.68,1.63,1.63,0,0,1,.78-.31l.06.61a1.15,1.15,0,0,0-.56.2,1.44,1.44,0,0,0-.45.47,1.56,1.56,0,0,0-.2,1.3,1.79,1.79,0,0,0,.83,1,1.82,1.82,0,0,0,1.32.28,1.56,1.56,0,0,0,1.06-.76,1.36,1.36,0,0,0,.12-1.32l.55-.24A2,2,0,0,1,74.24,61.71Z"/><path class="cls-1" d="M76.1,58l-3.52-1.6L72,57.65l-.49-.22,1.43-3.14.49.23-.59,1.28,3.53,1.61Z"/><path class="cls-1" d="M77.47,54.73l-4.21-1.35.47-1.45a1.71,1.71,0,0,1,.55-.85,1,1,0,0,1,.93-.13,1,1,0,0,1,.52.39,1.06,1.06,0,0,1,.16.64h0a1.08,1.08,0,0,1,.54-.57,1,1,0,0,1,.78,0,1.08,1.08,0,0,1,.75.73,2,2,0,0,1-.06,1.23Zm-2.24-1.37.24-.76a1,1,0,0,0,0-.65.59.59,0,0,0-.42-.39c-.42-.13-.72.11-.92.72l-.22.67Zm1.93.62.23-.74a1.64,1.64,0,0,0,.1-.51.93.93,0,0,0-.1-.46A.6.6,0,0,0,77,52c-.47-.15-.81.1-1,.76l-.25.79Z"/><path class="cls-1" d="M78.78,50.47l-4-2.67.1-.56,4.68-1.07-.13.69-1.14.24-.38,2.06,1,.63Zm-1.36-1.62.29-1.62-2.18.44Z"/><circle class="cls-2" cx="1.77" cy="35.19" r="1.38"/><circle class="cls-2" cx="76.54" cy="35.19" r="1.38"/></svg>