<svg id="Слой_1" data-name="Слой 1" xmlns="http://www.w3.org/2000/svg" viewBox="0 0 142.27 35.03"><defs><style>.cls-1{fill:#a2a1a1;}.cls-2{fill:#ff6200;}</style></defs><title>logo_gac_rb_footer</title><path class="cls-1" d="M35.67,8.86l-9.92,7.8,7,1H24.84a.76.76,0,1,0-1.51-.16H21.51c0-.07-.08-.22-.08-.3L23,16.28a.75.75,0,0,0,1.14-1,.74.74,0,0,0-1.06-.08.87.87,0,0,0-.23.84l-1.59.9-.23-.22L22,15.15a.8.8,0,0,0,1-.46.77.77,0,0,0-1.44-.53.85.85,0,0,0,.23.84l-.91,1.59a.45.45,0,0,0-.31-.08V14.69a.77.77,0,1,0-.9-.6.8.8,0,0,0,.6.6v1.82c-.07,0-.23.08-.3.08L19,15a.75.75,0,0,0-1-1.14A.74.74,0,0,0,18,14.92a.86.86,0,0,0,.83.23l.91,1.59-.23.22-1.59-.9a.68.68,0,0,0-.45-.91.73.73,0,0,0-.91.45.69.69,0,0,0,.45.91.68.68,0,0,0,.76-.23l1.59.91a.49.49,0,0,0-.07.3H17.42a.79.79,0,0,0-.91-.6.74.74,0,0,0-.61.76H8l7-1L5,8.86l11.74,4.7L14.16,7l4.32,5.53L20.37,0l1.82,12.5L26.51,7l-2.58,6.51ZM6,23H1.89v6.52H0v-7.8H6.13V23.1ZM40.74,27a2.15,2.15,0,0,0-.83-1.74A3,3,0,0,0,38,24.46H34.69V23h4.77V21.74H32.79v7.8h5.38a2.64,2.64,0,0,0,2-.84A3,3,0,0,0,40.74,27ZM38.55,27a1.21,1.21,0,0,1-.38.83,1.5,1.5,0,0,1-1,.3h-2.5V25.75h2.57a1.25,1.25,0,0,1,.91.38A1.38,1.38,0,0,1,38.55,27Zm-6.29-2.73a2.15,2.15,0,0,1-.83,1.74,3,3,0,0,1-1.89.76H26.2v2.73h-2v-7.8h5.38a2.61,2.61,0,0,1,2,.83A2.48,2.48,0,0,1,32.26,24.31Zm-2.19-.08a1.11,1.11,0,0,0-.38-.83,1.53,1.53,0,0,0-1-.3H26.2v2.42h2.58a1.25,1.25,0,0,0,.91-.38,1.41,1.41,0,0,0,.38-.91Zm-9.39,5.31H13.33v-7.8h1.89v6.43h3.56V21.74h1.9V28.1h1.06v1.44Zm-7.65,0-3.34-7.8H7.8l-3.26,7.8h1.9l.68-1.82h3.26l.68,1.82ZM9.77,26.36h-2l1.07-2.73Z"/><path class="cls-2" d="M19.69,18.93H6.59v1.75h13.1V18.93Zm14.47,0H21.05v1.75H34.16Z"/><path class="cls-1" d="M45.08,7.22V2.75h2.73v.7H45.89V7.22Z"/><path class="cls-1" d="M47.92,5a2.19,2.19,0,0,1,.69-1.69,2.73,2.73,0,0,1,3.51,0A2.19,2.19,0,0,1,52.81,5a2.24,2.24,0,0,1-.69,1.7,2.66,2.66,0,0,1-3.51,0A2.24,2.24,0,0,1,47.92,5Zm.88,0a1.68,1.68,0,0,0,.44,1.19,1.61,1.61,0,0,0,2.25,0A1.68,1.68,0,0,0,51.93,5a1.63,1.63,0,0,0-.43-1.16,1.46,1.46,0,0,0-1.14-.47,1.43,1.43,0,0,0-1.12.47A1.64,1.64,0,0,0,48.8,5Z"/><path class="cls-1" d="M53.55,7.26A2,2,0,0,1,53,7.2l.08-.7a.86.86,0,0,0,.28,0A.72.72,0,0,0,54.06,6a5.91,5.91,0,0,0,.22-2V2.75h3.13V7.22H56.6V3.45H55.06v.68a6,6,0,0,1-.35,2.39A1.19,1.19,0,0,1,53.55,7.26Z"/><path class="cls-1" d="M58.19,5a2.21,2.21,0,0,1,.68-1.69,2.45,2.45,0,0,1,1.75-.64,2.49,2.49,0,0,1,1.77.64A2.18,2.18,0,0,1,63.07,5a2.23,2.23,0,0,1-.68,1.7,2.47,2.47,0,0,1-1.77.66,2.4,2.4,0,0,1-1.74-.66A2.24,2.24,0,0,1,58.19,5Zm.88,0a1.64,1.64,0,0,0,.44,1.19,1.46,1.46,0,0,0,1.12.46,1.48,1.48,0,0,0,1.13-.46A1.67,1.67,0,0,0,62.19,5a1.63,1.63,0,0,0-.43-1.16,1.59,1.59,0,0,0-2.26,0A1.63,1.63,0,0,0,59.07,5Z"/><path class="cls-1" d="M63.86,7.22V2.75h1.77a1.8,1.8,0,0,1,1,.28,1,1,0,0,1,.4.85.9.9,0,0,1-.21.61,1.11,1.11,0,0,1-.58.36v0A1.15,1.15,0,0,1,67,5.2a1,1,0,0,1,.27.72,1.23,1.23,0,0,1-.15.61,1.1,1.1,0,0,1-.39.41,2.41,2.41,0,0,1-.55.21,2.59,2.59,0,0,1-.63.07Zm.81-3.81V4.57h.72A1,1,0,0,0,66,4.41.52.52,0,0,0,66.21,4,.45.45,0,0,0,66,3.54a1.37,1.37,0,0,0-.68-.13Zm0,1.84v1.3h.72c.68,0,1-.22,1-.67a.5.5,0,0,0-.24-.48,1.45,1.45,0,0,0-.75-.15Z"/><path class="cls-1" d="M68,7.22V2.75h.81V4.56h2.12V2.75h.81V7.22h-.81v-2H68.82v2Z"/><path class="cls-1" d="M72.54,5a2.21,2.21,0,0,1,.68-1.69A2.45,2.45,0,0,1,75,2.64a2.49,2.49,0,0,1,1.77.64A2.21,2.21,0,0,1,77.42,5a2.24,2.24,0,0,1-.69,1.7,2.66,2.66,0,0,1-3.51,0A2.27,2.27,0,0,1,72.54,5Zm.88,0a1.67,1.67,0,0,0,.43,1.19,1.62,1.62,0,0,0,2.26,0A1.67,1.67,0,0,0,76.54,5a1.63,1.63,0,0,0-.43-1.16,1.59,1.59,0,0,0-2.26,0A1.63,1.63,0,0,0,73.42,5Z"/><path class="cls-1" d="M78.21,7.22V2.75H79V6h0l2.14-3.27H82V7.22h-.81V4h0L79.09,7.22ZM80.09,2.4a1.06,1.06,0,0,1-.69-.23,1,1,0,0,1-.34-.65l.43-.08a.5.5,0,0,0,.2.34.6.6,0,0,0,.4.13.61.61,0,0,0,.41-.13.5.5,0,0,0,.2-.34l.43.08a1,1,0,0,1-.33.65A1.1,1.1,0,0,1,80.09,2.4Z"/><path class="cls-1" d="M44.53,16.5l2-4.47h.7l1.95,4.47h-.92l-.43-1h-2l-.41,1Zm1.59-1.71h1.41L46.83,13Z"/><path class="cls-1" d="M50.15,16.5V12.72h-1.4V12h3.6v.69H51V16.5Z"/><path class="cls-1" d="M53.92,16.5V12.72H52.53V12h3.59v.69H54.73V16.5Z"/><path class="cls-1" d="M56.65,16.5V12h3v.69h-2.2v1.14h2.08v.67H57.46v1.26h2.32v.71Z"/><path class="cls-1" d="M64.46,12.6l-.61.48a1.15,1.15,0,0,0-.46-.35,1.46,1.46,0,0,0-.58-.11,1.48,1.48,0,0,0-1.13.46,1.65,1.65,0,0,0-.44,1.17,1.7,1.7,0,0,0,.42,1.19,1.46,1.46,0,0,0,1.12.46,1.29,1.29,0,0,0,1.1-.52l.65.45a2.14,2.14,0,0,1-1.76.78A2.38,2.38,0,0,1,61,16a2.25,2.25,0,0,1-.68-1.7A2.19,2.19,0,0,1,61,12.56a2.52,2.52,0,0,1,1.77-.64,2.56,2.56,0,0,1,.94.17A1.5,1.5,0,0,1,64.46,12.6Z"/><path class="cls-1" d="M66.08,16.5V12.72H64.69V12h3.59v.69H66.89V16.5Z"/><path class="cls-1" d="M67.87,16.5l2-4.47h.7l2,4.47h-.93l-.42-1h-2l-.42,1Zm1.59-1.71h1.41L70.17,13Z"/><path class="cls-1" d="M76.43,17.51v-1H73V12h.8v3.76h2.09V12h.81v3.76h.5v1.72Z"/><path class="cls-1" d="M77.8,16.5V12h.81V15.3h0L80.76,12h.88V16.5h-.81V13.25h0L78.69,16.5Z"/><path class="cls-1" d="M82.42,14.25a2.24,2.24,0,0,1,.68-1.7,2.49,2.49,0,0,1,1.75-.63,2.52,2.52,0,0,1,1.77.63,2.24,2.24,0,0,1,.68,1.7,2.25,2.25,0,0,1-.69,1.7,2.43,2.43,0,0,1-1.76.66A2.38,2.38,0,0,1,83.11,16,2.25,2.25,0,0,1,82.42,14.25Zm.88,0a1.65,1.65,0,0,0,.43,1.18,1.5,1.5,0,0,0,1.13.47A1.49,1.49,0,0,0,86,15.43a1.82,1.82,0,0,0,0-2.35,1.62,1.62,0,0,0-2.26,0A1.64,1.64,0,0,0,83.3,14.25Z"/><path class="cls-1" d="M88.09,16.5V12h.81v1.8H91V12h.81V16.5H91v-2H88.9v2Z"/><path class="cls-1" d="M92.83,16.5V12h.81v1.8h2.12V12h.81V16.5h-.81v-2H93.64v2Z"/><path class="cls-1" d="M97.35,14.25a2.21,2.21,0,0,1,.69-1.7,2.47,2.47,0,0,1,1.75-.63,2.5,2.5,0,0,1,1.76.63,2.21,2.21,0,0,1,.69,1.7,2.25,2.25,0,0,1-.69,1.7A2.66,2.66,0,0,1,98,16,2.25,2.25,0,0,1,97.35,14.25Zm.88,0a1.66,1.66,0,0,0,.44,1.18,1.58,1.58,0,0,0,2.25,0,1.62,1.62,0,0,0,.44-1.18,1.64,1.64,0,0,0-.43-1.17,1.48,1.48,0,0,0-1.14-.46,1.46,1.46,0,0,0-1.12.46A1.65,1.65,0,0,0,98.23,14.25Z"/><path class="cls-1" d="M104.32,14.62v.65h-1.54v-.65Z"/><path class="cls-1" d="M49,21.87l-.62.48a1,1,0,0,0-.45-.34,1.57,1.57,0,0,0-1.72.35,1.8,1.8,0,0,0,0,2.35,1.43,1.43,0,0,0,1.12.46,1.29,1.29,0,0,0,1.1-.52l.65.45a2.15,2.15,0,0,1-1.76.78,2.46,2.46,0,0,1-1.75-.65,2.29,2.29,0,0,1-.68-1.71,2.17,2.17,0,0,1,.7-1.69,2.49,2.49,0,0,1,1.77-.64,2.73,2.73,0,0,1,.93.17A1.62,1.62,0,0,1,49,21.87Z"/><path class="cls-1" d="M49.55,25.77V21.3h3V22h-2.2v1.13h2.08v.67H50.36v1.26h2.31v.71Z"/><path class="cls-1" d="M53.46,25.77V21.3H55c1.14,0,1.71.43,1.71,1.3a1.11,1.11,0,0,1-.49,1,2.3,2.3,0,0,1-1.27.31h-.63v1.85Zm.81-2.52h.57c.67,0,1-.21,1-.65a.49.49,0,0,0-.27-.49,1.62,1.62,0,0,0-.72-.14h-.59Z"/><path class="cls-1" d="M58.3,25.77V22H56.91v-.7H60.5V22H59.11v3.77Z"/><path class="cls-1" d="M61,25.77V21.3h.81v3.27h0L64,21.3h.87v4.47h-.81V22.53h0l-2.13,3.24Z"/><path class="cls-1" d="M67.73,25.88v-.54a2.28,2.28,0,0,1-1.52-.53,1.7,1.7,0,0,1-.59-1.34,1.68,1.68,0,0,1,.57-1.36,2.47,2.47,0,0,1,1.54-.52v-.4h.83v.4a2.52,2.52,0,0,1,1.55.52,1.85,1.85,0,0,1,0,2.7,2.26,2.26,0,0,1-1.52.53v.54Zm0-1.24V22.29a1.37,1.37,0,0,0-.93.36,1.1,1.1,0,0,0-.31.82C66.49,24.17,66.9,24.56,67.73,24.64Zm.83,0c.83-.08,1.24-.47,1.24-1.17a1.1,1.1,0,0,0-.31-.82,1.37,1.37,0,0,0-.93-.36Z"/><path class="cls-1" d="M71.43,25.77V21.3h.81v3.27h0l2.13-3.27h.88v4.47h-.81V22.53h0l-2.12,3.24Z"/><path class="cls-1" d="M76.27,25.77V21.3h.81v1.93h0L79,21.3h1.1L78,23.37l2.27,2.4H79.09l-2-2.24h0v2.24Z"/><path class="cls-1" d="M80.14,25.77l2-4.47h.7l2,4.47h-.92l-.42-1h-2l-.41,1Zm1.59-1.7h1.41l-.7-1.82Z"/><path class="cls-1" d="M88.7,26.79v-1H85.22V21.3H86v3.76h2.09V21.3h.81v3.76h.5v1.73Z"/><path class="cls-1" d="M90.07,25.77V21.3h.81v3.27h0L93,21.3h.87v4.47h-.81V22.53h0L91,25.77Z"/><path class="cls-1" d="M94.69,23.52a2.18,2.18,0,0,1,.68-1.69,2.73,2.73,0,0,1,3.51,0,2.19,2.19,0,0,1,.69,1.69,2.26,2.26,0,0,1-.69,1.71,2.69,2.69,0,0,1-3.51,0A2.25,2.25,0,0,1,94.69,23.52Zm.87,0A1.66,1.66,0,0,0,96,24.71a1.61,1.61,0,0,0,2.25,0,1.8,1.8,0,0,0,0-2.35,1.49,1.49,0,0,0-1.14-.47,1.46,1.46,0,0,0-1.12.47A1.64,1.64,0,0,0,95.56,23.52Z"/><path class="cls-1" d="M100.35,25.77V21.3h.81v1.81h2.13V21.3h.81v4.47h-.81v-2h-2.13v2Z"/><path class="cls-1" d="M105.1,25.77V21.3h.81v1.81H108V21.3h.81v4.47H108v-2h-2.12v2Z"/><path class="cls-1" d="M109.84,25.77V21.3h.81v1.78h.67a2.15,2.15,0,0,1,1.25.33,1.32,1.32,0,0,1,0,2,2.06,2.06,0,0,1-1.23.34Zm.81-.67h.61c.64,0,1-.22,1-.67a.57.57,0,0,0-.25-.51,1.18,1.18,0,0,0-.71-.17h-.61Zm3,.67V21.3h.81v4.47Z"/><path class="cls-1" d="M115.48,25.77V21.3h.81v3.27h0l2.13-3.27h.87v4.47h-.81V22.53h0l-2.13,3.24ZM117.37,21a1.07,1.07,0,0,1-.7-.23,1,1,0,0,1-.34-.65l.43-.08a.48.48,0,0,0,.2.34.61.61,0,0,0,.41.13.58.58,0,0,0,.4-.13A.48.48,0,0,0,118,20l.44.08a1,1,0,0,1-.34.65A1.09,1.09,0,0,1,117.37,21Z"/><path class="cls-1" d="M125.4,26.79v-1h-3.48V21.3h.81v3.76h2.08V21.3h.81v3.76h.5v1.73Z"/><path class="cls-1" d="M126.76,25.77V21.3h3V22h-2.2v1.13h2.09v.67h-2.09v1.26h2.32v.71Z"/><path class="cls-1" d="M130.68,25.77V21.3h.81v1.81h2.12V21.3h.81v4.47h-.81v-2h-2.12v2Z"/><path class="cls-1" d="M136.34,25.77V22H135v-.7h3.6V22h-1.4v3.77Z"/><path class="cls-1" d="M139.07,25.77V21.3h1.48c1.15,0,1.72.43,1.72,1.3a1.13,1.13,0,0,1-.49,1,2.33,2.33,0,0,1-1.28.31h-.62v1.85Zm.81-2.52h.56c.68,0,1-.21,1-.65a.49.49,0,0,0-.27-.49,1.54,1.54,0,0,0-.71-.14h-.59Z"/><path class="cls-1" d="M45.35,33.54V29.17h1.34a1.94,1.94,0,0,1,1.15.3,1,1,0,0,1,.41.91,1.07,1.07,0,0,1-.43.94,2,2,0,0,1-1.16.3H46v1.92ZM46,31.1h.65q1,0,1-.72c0-.46-.34-.7-1-.7H46Z"/><path class="cls-1" d="M50,33.62a1.53,1.53,0,0,1-1.11-.42,1.66,1.66,0,0,1,0-2.23,1.47,1.47,0,0,1,1.08-.44,1.33,1.33,0,0,1,1,.41,1.56,1.56,0,0,1,.38,1.11v.2H49a.93.93,0,0,0,.29.64,1,1,0,0,0,.66.25,1,1,0,0,0,.86-.44l.41.32A1.49,1.49,0,0,1,50,33.62Zm-1-1.8h1.75a.94.94,0,0,0-.23-.6.78.78,0,0,0-.6-.23.92.92,0,0,0-.63.24A.9.9,0,0,0,49,31.82Z"/><path class="cls-1" d="M53.53,33.62a1.56,1.56,0,0,1-1.13-.42A1.48,1.48,0,0,1,52,32.08,1.51,1.51,0,0,1,52.39,31a1.59,1.59,0,0,1,1.13-.43,1.5,1.5,0,0,1,.62.13,1.09,1.09,0,0,1,.48.36l-.42.34a.62.62,0,0,0-.28-.25.93.93,0,0,0-.4-.09.87.87,0,0,0-.7.31,1.16,1.16,0,0,0-.26.75,1.11,1.11,0,0,0,.27.75.89.89,0,0,0,.7.31.85.85,0,0,0,.7-.32l.39.35A1.36,1.36,0,0,1,53.53,33.62Z"/><path class="cls-1" d="M55.2,33.54V30.61h2.6v2.93h-.58V31.09H55.78v2.45Z"/><path class="cls-1" d="M58.92,35a2.34,2.34,0,0,1-.39,0l.06-.52a1,1,0,0,0,.29.05.49.49,0,0,0,.33-.11,1.09,1.09,0,0,0,.21-.38l.19-.49-1.26-2.93H59l.91,2.3h0l.81-2.3h.62l-1.42,3.63a1.47,1.47,0,0,1-.38.59A.93.93,0,0,1,58.92,35Z"/><path class="cls-1" d="M63.44,33.62a1.48,1.48,0,0,1-1.25-.55,2.34,2.34,0,0,1-.34-1.42c0-.31,0-.57,0-.79a4.76,4.76,0,0,1,.11-.64,1.57,1.57,0,0,1,.23-.52,1.22,1.22,0,0,1,.4-.34,1.46,1.46,0,0,1,.6-.19l.82-.1A1.33,1.33,0,0,0,64.4,29a.32.32,0,0,0,.16-.2l.42.13a.81.81,0,0,1-.25.44,1,1,0,0,1-.51.19l-.81.11a1.58,1.58,0,0,0-.63.18.87.87,0,0,0-.35.48,2.58,2.58,0,0,0-.14.94h0a1.3,1.3,0,0,1,1.26-.71,1.38,1.38,0,0,1,1,.44,1.53,1.53,0,0,1,.41,1.1,1.48,1.48,0,0,1-.45,1.11A1.52,1.52,0,0,1,63.44,33.62Zm-.72-.79a.91.91,0,0,0,.71.31.89.89,0,0,0,.71-.31,1.1,1.1,0,0,0,.27-.76,1.08,1.08,0,0,0-.27-.75.88.88,0,0,0-.72-.31.87.87,0,0,0-.7.31,1.08,1.08,0,0,0-.27.75A1.1,1.1,0,0,0,62.72,32.83Z"/><path class="cls-1" d="M65.69,33.58a1.35,1.35,0,0,1-.37,0l.05-.49a.58.58,0,0,0,.19,0,.5.5,0,0,0,.47-.33,2.69,2.69,0,0,0,.16-1.12v-1h2.25v2.93h-.58V31.09H66.75v.7a2.8,2.8,0,0,1-.25,1.34A.86.86,0,0,1,65.69,33.58Z"/><path class="cls-1" d="M69.44,33.54V30.61H70v2.12h0l1.5-2.12h.64v2.93h-.58V31.42h0l-1.5,2.12Z"/><path class="cls-1" d="M73.18,33.54V30.61h.58V32h0L75,30.61h.78L74.42,32l1.49,1.54h-.78l-1.35-1.43h0v1.43Z"/><path class="cls-1" d="M76.42,33.54V30.61H77v2.12h0l1.5-2.12h.64v2.93h-.58V31.42h0l-1.5,2.12Z"/><path class="cls-1" d="M81.73,33.54V29.17h2.73v.52H82.34V31h.82a1.89,1.89,0,0,1,1.17.32,1.08,1.08,0,0,1,.43,1,1.11,1.11,0,0,1-.43.95,1.92,1.92,0,0,1-1.16.31Zm.61-.52h.76c.69,0,1-.24,1-.74a.64.64,0,0,0-.27-.56,1.29,1.29,0,0,0-.77-.19h-.76Z"/><path class="cls-1" d="M86.46,33.62a1.64,1.64,0,0,1-.37,0,1.26,1.26,0,0,1-.34-.15.76.76,0,0,1-.25-.28.92.92,0,0,1,0-.87.92.92,0,0,1,.3-.29,2.07,2.07,0,0,1,.48-.16c.19,0,.37-.06.54-.08h.6v-.08a.58.58,0,0,0-.2-.48.78.78,0,0,0-.53-.17,1.16,1.16,0,0,0-.83.34L85.57,31a1.69,1.69,0,0,1,1.2-.44,1.25,1.25,0,0,1,.92.32,1.17,1.17,0,0,1,.31.83V33a2.83,2.83,0,0,0,0,.58h-.53a2,2,0,0,1-.05-.42h0A1.09,1.09,0,0,1,86.46,33.62Zm.13-.46a.81.81,0,0,0,.62-.24.86.86,0,0,0,.23-.62v-.15h-.15c-.86,0-1.3.18-1.3.55a.39.39,0,0,0,.17.35A.75.75,0,0,0,86.59,33.16Z"/><path class="cls-1" d="M89,33.54V30.61h.58v2.44H90.8V30.61h.58v2.44h1.25V30.61h.58v2.93Z"/><path class="cls-1" d="M94.24,33.54V30.61h.58V32h0l1.24-1.34h.77L95.49,32,97,33.54h-.78l-1.35-1.43h0v1.43Z"/><path class="cls-1" d="M99.89,33.19a1.56,1.56,0,0,1-1.13.43,1.54,1.54,0,0,1-1.12-.43,1.48,1.48,0,0,1-.45-1.12,1.43,1.43,0,0,1,.44-1.1,1.67,1.67,0,0,1,2.26,0,1.44,1.44,0,0,1,.45,1.1A1.52,1.52,0,0,1,99.89,33.19Zm-1.84-.37a.87.87,0,0,0,.71.32.9.9,0,0,0,.72-.32,1.14,1.14,0,0,0,.26-.75,1.16,1.16,0,0,0-.26-.75.92.92,0,0,0-.72-.3.89.89,0,0,0-.71.3,1.11,1.11,0,0,0-.26.75A1.09,1.09,0,0,0,98.05,32.82Z"/><path class="cls-1" d="M101.15,35V30.61h.57v.46h0a1.13,1.13,0,0,1,.42-.39,1.33,1.33,0,0,1,.63-.15,1.37,1.37,0,0,1,1.06.45,1.55,1.55,0,0,1,.41,1.09,1.6,1.6,0,0,1-.41,1.11,1.37,1.37,0,0,1-1.07.44,1.31,1.31,0,0,1-.59-.13,1.17,1.17,0,0,1-.44-.38h0V35Zm1.53-1.89a.88.88,0,0,0,.72-.32,1.14,1.14,0,0,0,.26-.75,1.16,1.16,0,0,0-.26-.75.89.89,0,0,0-.72-.3.9.9,0,0,0-.71.31,1.12,1.12,0,0,0-.28.75,1.08,1.08,0,0,0,.28.74A.91.91,0,0,0,102.68,33.14Z"/><path class="cls-1" d="M105.61,33.54V31.09h-1v-.48h2.57v.48h-1v2.45Z"/><path class="cls-1" d="M110.25,33.19a1.69,1.69,0,0,1-2.25,0,1.52,1.52,0,0,1-.45-1.12A1.44,1.44,0,0,1,108,31a1.55,1.55,0,0,1,1.13-.44,1.57,1.57,0,0,1,1.13.44,1.44,1.44,0,0,1,.45,1.1A1.49,1.49,0,0,1,110.25,33.19Zm-1.84-.37a1,1,0,0,0,1.43,0,1.09,1.09,0,0,0,.26-.75,1.11,1.11,0,0,0-.26-.75,1,1,0,0,0-1.43,0,1.16,1.16,0,0,0-.26.75A1.14,1.14,0,0,0,108.41,32.82Z"/><path class="cls-1" d="M112.9,33.62a1.56,1.56,0,0,1-1.13-.42,1.48,1.48,0,0,1-.45-1.12,1.51,1.51,0,0,1,.44-1.12,1.59,1.59,0,0,1,1.13-.43,1.5,1.5,0,0,1,.62.13A1.09,1.09,0,0,1,114,31l-.42.34a.65.65,0,0,0-.29-.25.86.86,0,0,0-.39-.09.87.87,0,0,0-.7.31,1.16,1.16,0,0,0-.26.75,1.11,1.11,0,0,0,.27.75.89.89,0,0,0,.7.31.85.85,0,0,0,.7-.32l.39.35A1.37,1.37,0,0,1,112.9,33.62Z"/><path class="cls-1" d="M115.3,33.54V31.09h-1v-.48h2.57v.48h-1v2.45Z"/><path class="cls-1" d="M118.35,33.62a1.5,1.5,0,0,1-.37,0,1.14,1.14,0,0,1-.34-.15.78.78,0,0,1-.26-.28.94.94,0,0,1-.1-.43.83.83,0,0,1,.12-.44,1,1,0,0,1,.31-.29,2,2,0,0,1,.47-.16c.2,0,.38-.06.55-.08h.59v-.08a.58.58,0,0,0-.19-.48.8.8,0,0,0-.53-.17,1.14,1.14,0,0,0-.83.34l-.31-.37a1.66,1.66,0,0,1,1.2-.44,1.21,1.21,0,0,1,.91.32,1.12,1.12,0,0,1,.31.83V33a3.8,3.8,0,0,0,0,.58h-.52a2,2,0,0,1-.05-.42h0A1.11,1.11,0,0,1,118.35,33.62Zm.13-.46a.81.81,0,0,0,.62-.24.86.86,0,0,0,.22-.62v-.15h-.14c-.87,0-1.3.18-1.3.55a.37.37,0,0,0,.17.35A.75.75,0,0,0,118.48,33.16Z"/><path class="cls-1" d="M120.85,33.54V30.61h.58v1.16h1.46V30.61h.58v2.93h-.58V32.25h-1.46v1.29Z"/></svg>