<?xml version="1.0" encoding="utf-8"?>
<!-- Generator: Adobe Illustrator 22.0.1, SVG Export Plug-In . SVG Version: 6.00 Build 0)  -->
<svg version="1.1" id="_1" xmlns="http://www.w3.org/2000/svg" xmlns:xlink="http://www.w3.org/1999/xlink" x="0px" y="0px"
	 viewBox="0 0 186.8 46.5" style="enable-background:new 0 0 186.8 46.5;" xml:space="preserve">
<style type="text/css">
	.st0{fill:#FFFFFF;}
	.st1{fill:#FF6200;}
</style>
<title>logo_gac_rb</title>
<g>
	<path class="st0" d="M47.1,11.7L34,22l9.2,1.3H32.8c0.1-0.5-0.3-1-0.9-1.1c-0.5-0.1-1,0.3-1.1,0.9l0,0h-2.4c0-0.1-0.1-0.3-0.1-0.4
		l2.1-1.2c0.4,0.4,1,0.5,1.4,0.1c0.4-0.4,0.5-1,0.1-1.4s-1-0.5-1.4-0.1c-0.3,0.3-0.4,0.7-0.3,1.1l-2.1,1.2c-0.1-0.1-0.2-0.2-0.3-0.3
		L29,20c0.5,0.2,1.1-0.1,1.3-0.6c0.2-0.5-0.1-1.1-0.6-1.3c-0.5-0.2-1.1,0.1-1.3,0.6c-0.1,0.4,0,0.8,0.3,1.1l-1.2,2.1
		c-0.1-0.1-0.3-0.1-0.4-0.1v-2.4c0.5-0.1,0.9-0.6,0.8-1.2c-0.1-0.5-0.6-0.9-1.2-0.8c-0.5,0.1-0.9,0.6-0.8,1.2
		c0.1,0.4,0.4,0.7,0.8,0.8v2.4c-0.1,0-0.3,0.1-0.4,0.1l-1.2-2.1c0.4-0.4,0.5-1,0.1-1.4s-1-0.5-1.4-0.1s-0.5,1-0.1,1.4
		c0.3,0.3,0.7,0.4,1.1,0.3l1.2,2.1c-0.1,0.1-0.2,0.2-0.3,0.3l-2.1-1.2c0.2-0.5-0.1-1.1-0.6-1.2s-1.1,0.1-1.2,0.6
		c-0.2,0.5,0.1,1.1,0.6,1.2c0.4,0.1,0.8,0,1-0.3l2.1,1.2c-0.1,0.1-0.1,0.3-0.1,0.4H23c-0.1-0.5-0.6-0.9-1.2-0.8
		c-0.5,0.1-0.8,0.5-0.8,1H10.6l9.2-1.3L6.6,11.7l15.5,6.2l-3.4-8.6l5.7,7.3L26.9,0l2.4,16.5L35,9.2l-3.4,8.6L47.1,11.7z M7.9,30.4
		H2.5V39H0V28.7h8.1v1.8L7.9,30.4z M53.8,35.6c0-0.9-0.4-1.8-1.1-2.3c-0.7-0.6-1.6-1-2.5-1h-4.4v-1.9h6.3v-1.7h-8.8V39h7.1
		c1,0,2-0.4,2.6-1.1C53.5,37.2,53.8,36.4,53.8,35.6z M50.9,35.7c0,0.4-0.2,0.8-0.5,1.1c-0.4,0.3-0.8,0.4-1.3,0.4h-3.3V34h3.4
		c0.5,0,0.9,0.2,1.2,0.5C50.7,34.8,50.9,35.3,50.9,35.7z M42.6,32.1c0,0.9-0.4,1.8-1.1,2.3c-0.7,0.6-1.6,1-2.5,1h-4.4V39H32V28.7
		h7.1c1,0,2,0.4,2.6,1.1C42.3,30.4,42.6,31.3,42.6,32.1z M39.7,32c0-0.4-0.2-0.9-0.5-1.1c-0.4-0.3-0.8-0.4-1.3-0.4h-3.3v3.2H38
		c0.5,0,0.9-0.2,1.2-0.5S39.7,32.4,39.7,32L39.7,32z M27.3,39h-9.7V28.7h2.5v8.5h4.7v-8.5h2.5v8.4h1.4V39H27.3L27.3,39z M17.2,39
		l-4.4-10.3h-2.5L6,39h2.5l0.9-2.4h4.3l0.9,2.4H17.2z M12.9,34.8h-2.7l1.4-3.6L12.9,34.8z"/>
	<path class="st1" d="M26,25H8.7v2.3H26V25L26,25z M45.1,25H27.8v2.3h17.3V25z"/>
	<g>
		<g>
			<path class="st1" d="M59.6,9.6v-6h3.6v0.9h-2.5v5h-1.1V9.6z"/>
			<path class="st1" d="M63.3,6.6c0-0.9,0.3-1.7,0.9-2.3s1.4-0.8,2.3-0.8s1.7,0.3,2.3,0.8s0.9,1.3,0.9,2.3c0,0.9-0.3,1.7-0.9,2.3
				s-1.4,0.9-2.3,0.9s-1.7-0.3-2.3-0.9C63.6,8.3,63.3,7.5,63.3,6.6z M64.4,6.6c0,0.6,0.2,1.2,0.6,1.6c0.4,0.4,0.9,0.6,1.5,0.6
				s1.1-0.2,1.5-0.6s0.6-0.9,0.6-1.6C68.5,6,68.3,5.4,68,5c-0.4-0.4-0.9-0.6-1.5-0.6S65.4,4.6,65,5S64.4,6,64.4,6.6z"/>
			<path class="st1" d="M70.6,9.6c-0.3,0-0.5,0-0.7-0.1L70,8.6c0.1,0,0.2,0.1,0.4,0.1c0.4,0,0.7-0.2,0.9-0.7
				c0.2-0.5,0.3-1.4,0.3-2.6V3.6h4.1v6h-1.1v-5h-2v0.9c0,1.5-0.2,2.5-0.5,3.2C71.9,9.3,71.3,9.6,70.6,9.6z"/>
			<path class="st1" d="M76.7,6.6c0-0.9,0.3-1.7,0.9-2.3s1.4-0.8,2.3-0.8s1.7,0.3,2.3,0.8c0.6,0.6,0.9,1.3,0.9,2.3
				c0,0.9-0.3,1.7-0.9,2.3s-1.4,0.9-2.3,0.9s-1.7-0.3-2.3-0.9C77,8.3,76.7,7.5,76.7,6.6z M77.9,6.6c0,0.6,0.2,1.2,0.6,1.6
				c0.4,0.4,0.9,0.6,1.5,0.6s1.1-0.2,1.5-0.6c0.3-0.4,0.5-1,0.5-1.6S81.8,5.4,81.4,5s-0.9-0.6-1.5-0.6S78.8,4.6,78.4,5
				C78.1,5.4,77.9,6,77.9,6.6z"/>
			<path class="st1" d="M84.1,9.6v-6h2.3c0.5,0,0.9,0.1,1.3,0.4s0.5,0.6,0.5,1.1c0,0.3-0.1,0.6-0.3,0.8c-0.2,0.2-0.4,0.4-0.8,0.5
				l0,0c0.4,0.1,0.7,0.2,0.9,0.4c0.2,0.2,0.4,0.6,0.4,1c0,0.3-0.1,0.6-0.2,0.8S87.9,9,87.7,9.1S87.2,9.3,87,9.4
				c-0.3,0.1-0.5,0.1-0.8,0.1L84.1,9.6L84.1,9.6z M85.2,4.5V6h0.9c0.4,0,0.6-0.1,0.8-0.2c0.2-0.1,0.3-0.3,0.3-0.6
				c0-0.3-0.1-0.5-0.3-0.6c-0.2-0.1-0.5-0.2-0.9-0.2L85.2,4.5L85.2,4.5z M85.2,7v1.7h1c0.9,0,1.3-0.3,1.3-0.9c0-0.3-0.1-0.5-0.3-0.6
				C87,7,86.6,7,86.2,7H85.2z"/>
			<path class="st1" d="M89.6,9.6v-6h1.1V6h2.8V3.6h1.1v6h-1.1V6.9h-2.8v2.6h-1.1V9.6z"/>
			<path class="st1" d="M95.5,6.6c0-0.9,0.3-1.7,0.9-2.3s1.4-0.8,2.3-0.8s1.7,0.3,2.3,0.8s0.9,1.3,0.9,2.3c0,0.9-0.3,1.7-0.9,2.3
				s-1.4,0.9-2.3,0.9S97,9.5,96.4,8.9C95.8,8.3,95.5,7.5,95.5,6.6z M96.7,6.6c0,0.6,0.2,1.2,0.6,1.6c0.4,0.4,0.9,0.6,1.5,0.6
				s1.1-0.2,1.5-0.6s0.6-0.9,0.6-1.6c0-0.6-0.2-1.1-0.6-1.6c-0.4-0.4-0.9-0.6-1.5-0.6S97.7,4.6,97.3,5C96.9,5.4,96.7,6,96.7,6.6z"/>
			<path class="st1" d="M102.9,9.6v-6h1.1V8l0,0l2.8-4.4h1.1v6h-1.1V5.3l0,0L104,9.6H102.9z M105.4,3.2c-0.4,0-0.7-0.1-0.9-0.3
				c-0.2-0.2-0.4-0.5-0.4-0.9l0.6-0.1c0,0.2,0.1,0.3,0.3,0.5c0.1,0.1,0.3,0.2,0.5,0.2s0.4-0.1,0.5-0.2c0.1-0.1,0.2-0.3,0.3-0.5
				l0.6,0.1c-0.1,0.4-0.2,0.7-0.4,0.9C106.1,3.1,105.8,3.2,105.4,3.2z"/>
			<path class="st1" d="M58.8,21.5l2.6-6h0.9l2.6,6h-1.2l-0.6-1.4h-2.6L60,21.5H58.8z M60.9,19.2h1.8l-0.9-2.4L60.9,19.2z"/>
			<path class="st1" d="M66.2,21.5v-5h-1.8v-0.9h4.7v0.9h-1.8v5H66.2z"/>
			<path class="st1" d="M71.1,21.5v-5h-1.8v-0.9H74v0.9h-1.8v5H71.1z"/>
			<path class="st1" d="M74.7,21.5v-6h3.9v0.9h-2.9V18h2.7v0.9h-2.7v1.7h3v0.9H74.7z"/>
			<path class="st1" d="M84.9,16.3l-0.8,0.6c-0.1-0.2-0.3-0.4-0.6-0.5c-0.2-0.1-0.5-0.2-0.8-0.2c-0.6,0-1.1,0.2-1.5,0.6
				s-0.6,0.9-0.6,1.6s0.2,1.2,0.6,1.6s0.9,0.6,1.5,0.6s1.1-0.2,1.4-0.7l0.8,0.6c-0.6,0.7-1.3,1-2.3,1c-0.9,0-1.7-0.3-2.3-0.9
				c-0.6-0.6-0.9-1.3-0.9-2.3c0-0.9,0.3-1.7,0.9-2.3c0.6-0.6,1.4-0.9,2.3-0.9c0.4,0,0.8,0.1,1.2,0.2C84.4,15.8,84.7,16,84.9,16.3z"
				/>
			<path class="st1" d="M87.1,21.5v-5h-1.8v-0.9H90v0.9h-1.8v5H87.1z"/>
			<path class="st1" d="M89.4,21.5l2.6-6h0.9l2.6,6h-1.2l-0.6-1.4h-2.6l-0.5,1.4H89.4z M91.5,19.2h1.8l-0.9-2.4L91.5,19.2z"/>
			<path class="st1" d="M100.6,22.8v-1.4H96v-6h1.1v5h2.7v-5h1.1v5h0.7v2.3h-1V22.8z"/>
			<path class="st1" d="M102.4,21.5v-6h1.1v4.4l0,0l2.8-4.4h1.1v6h-1.1v-4.3l0,0l-2.8,4.3H102.4z"/>
			<path class="st1" d="M108.5,18.5c0-0.9,0.3-1.7,0.9-2.3c0.6-0.6,1.4-0.8,2.3-0.8s1.7,0.3,2.3,0.8c0.6,0.6,0.9,1.3,0.9,2.3
				c0,0.9-0.3,1.7-0.9,2.3c-0.6,0.6-1.4,0.9-2.3,0.9s-1.7-0.3-2.3-0.9C108.8,20.2,108.5,19.4,108.5,18.5z M109.6,18.5
				c0,0.6,0.2,1.2,0.6,1.6s0.9,0.6,1.5,0.6s1.1-0.2,1.5-0.6s0.6-0.9,0.6-1.6c0-0.6-0.2-1.1-0.6-1.6s-0.9-0.6-1.5-0.6
				s-1.1,0.2-1.5,0.6S109.6,17.9,109.6,18.5z"/>
			<path class="st1" d="M115.9,21.5v-6h1.1v2.4h2.8v-2.4h1.1v6h-1.1v-2.6H117v2.6H115.9z"/>
			<path class="st1" d="M122.1,21.5v-6h1.1v2.4h2.8v-2.4h1.1v6H126v-2.6h-2.8v2.6H122.1z"/>
			<path class="st1" d="M128,18.5c0-0.9,0.3-1.7,0.9-2.3c0.6-0.6,1.4-0.8,2.3-0.8c0.9,0,1.7,0.3,2.3,0.8c0.6,0.6,0.9,1.3,0.9,2.3
				c0,0.9-0.3,1.7-0.9,2.3c-0.6,0.6-1.4,0.9-2.3,0.9c-0.9,0-1.7-0.3-2.3-0.9C128.3,20.2,128,19.4,128,18.5z M129.2,18.5
				c0,0.6,0.2,1.2,0.6,1.6c0.4,0.4,0.9,0.6,1.5,0.6s1.1-0.2,1.5-0.6s0.6-0.9,0.6-1.6c0-0.6-0.2-1.1-0.6-1.6s-0.9-0.6-1.5-0.6
				s-1.1,0.2-1.5,0.6S129.2,17.9,129.2,18.5z"/>
			<path class="st1" d="M137.1,19v0.9h-2V19H137.1z"/>
			<path class="st1" d="M64.7,28.2l-0.8,0.6c-0.1-0.2-0.3-0.4-0.6-0.5c-0.2-0.1-0.5-0.2-0.8-0.2c-0.6,0-1.1,0.2-1.5,0.6
				s-0.6,0.9-0.6,1.6s0.2,1.2,0.6,1.6c0.4,0.4,0.9,0.6,1.5,0.6s1.1-0.2,1.4-0.7l0.8,0.6c-0.6,0.7-1.3,1-2.3,1
				c-0.9,0-1.7-0.3-2.3-0.9c-0.6-0.6-0.9-1.3-0.9-2.3c0-0.9,0.3-1.7,0.9-2.3c0.6-0.6,1.4-0.9,2.3-0.9c0.4,0,0.8,0.1,1.2,0.2
				C64.1,27.7,64.4,27.9,64.7,28.2z"/>
			<path class="st1" d="M65.4,33.4v-6h3.9v0.9h-2.9v1.5h2.7v0.9h-2.7v1.7h3v0.9L65.4,33.4L65.4,33.4z"/>
			<path class="st1" d="M70.5,33.4v-6h1.9c1.5,0,2.2,0.6,2.2,1.7c0,0.6-0.2,1.1-0.6,1.3c-0.4,0.3-1,0.4-1.7,0.4h-0.8v2.5L70.5,33.4
				L70.5,33.4z M71.6,30.1h0.7c0.9,0,1.3-0.3,1.3-0.9c0-0.3-0.1-0.5-0.3-0.7c-0.2-0.1-0.5-0.2-0.9-0.2h-0.8
				C71.6,28.3,71.6,30.1,71.6,30.1z"/>
			<path class="st1" d="M76.9,33.4v-5H75v-0.9h4.7v0.9h-1.8v5H76.9z"/>
			<path class="st1" d="M80.4,33.4v-6h1.1v4.4l0,0l2.8-4.4h1.1v6h-1.1v-4.3l0,0l-2.8,4.3H80.4z"/>
			<path class="st1" d="M89.2,33.6v-0.7c-0.8,0-1.5-0.2-2-0.7s-0.8-1.1-0.8-1.8c0-0.8,0.2-1.4,0.7-1.8s1.2-0.7,2-0.7v-0.5h1.1v0.5
				c0.9,0,1.5,0.3,2,0.7c0.5,0.4,0.7,1,0.7,1.8c0,0.7-0.3,1.3-0.8,1.8s-1.2,0.7-2,0.7v0.7H89.2z M89.2,31.9v-3.1
				c-0.5,0-0.9,0.2-1.2,0.5c-0.3,0.3-0.4,0.6-0.4,1.1C87.6,31.3,88.1,31.8,89.2,31.9z M90.3,31.9c1.1-0.1,1.6-0.6,1.6-1.6
				c0-0.5-0.1-0.8-0.4-1.1c-0.3-0.3-0.7-0.4-1.2-0.5V31.9z"/>
			<path class="st1" d="M94.1,33.4v-6h1.1v4.4l0,0l2.8-4.4h1.1v6H98v-4.3l0,0l-2.8,4.3H94.1z"/>
			<path class="st1" d="M100.4,33.4v-6h1.1V30l0,0l2.5-2.6h1.4l-2.8,2.7l3,3.2h-1.5l-2.6-3l0,0v3h-1.1V33.4z"/>
			<path class="st1" d="M105.5,33.4l2.6-6h0.9l2.6,6h-1.2l-0.6-1.4h-2.6l-0.5,1.4H105.5z M107.6,31.1h1.8l-0.9-2.4L107.6,31.1z"/>
			<path class="st1" d="M116.7,34.8v-1.4h-4.6v-6h1.1v5h2.7v-5h1.1v5h0.7v2.3h-1V34.8z"/>
			<path class="st1" d="M118.5,33.4v-6h1.1v4.4l0,0l2.8-4.4h1.1v6h-1.1v-4.3l0,0l-2.8,4.3H118.5z"/>
			<path class="st1" d="M124.5,30.4c0-0.9,0.3-1.7,0.9-2.3c0.6-0.6,1.4-0.8,2.3-0.8s1.7,0.3,2.3,0.8c0.6,0.6,0.9,1.3,0.9,2.3
				c0,0.9-0.3,1.7-0.9,2.3c-0.6,0.6-1.4,0.9-2.3,0.9c-0.9,0-1.7-0.3-2.3-0.9C124.8,32.1,124.5,31.3,124.5,30.4z M125.7,30.4
				c0,0.6,0.2,1.2,0.6,1.6c0.4,0.4,0.9,0.6,1.5,0.6s1.1-0.2,1.5-0.6c0.4-0.4,0.6-0.9,0.6-1.6c0-0.6-0.2-1.1-0.6-1.6
				c-0.4-0.4-0.9-0.6-1.5-0.6c-0.6,0-1.1,0.2-1.5,0.6C125.9,29.3,125.7,29.8,125.7,30.4z"/>
			<path class="st1" d="M131.9,33.4v-6h1.1v2.4h2.8v-2.4h1.1v6h-1.1v-2.6H133v2.6H131.9z"/>
			<path class="st1" d="M138.2,33.4v-6h1.1v2.4h2.8v-2.4h1.1v6H142v-2.6h-2.8v2.6H138.2z"/>
			<path class="st1" d="M144.4,33.4v-6h1.1v2.4h0.9c0.7,0,1.2,0.1,1.6,0.4c0.4,0.3,0.6,0.7,0.6,1.3s-0.2,1-0.6,1.3
				c-0.4,0.3-0.9,0.5-1.6,0.5h-2V33.4z M145.4,32.5h0.8c0.8,0,1.3-0.3,1.3-0.9c0-0.3-0.1-0.5-0.3-0.7s-0.5-0.2-0.9-0.2h-0.8v1.8
				H145.4z M149.4,33.4v-6h1.1v6H149.4z"/>
			<path class="st1" d="M151.8,33.4v-6h1.1v4.4l0,0l2.8-4.4h1.1v6h-1.1v-4.3l0,0l-2.8,4.3H151.8z M154.2,27c-0.4,0-0.7-0.1-0.9-0.3
				c-0.2-0.2-0.4-0.5-0.4-0.9l0.6-0.1c0,0.2,0.1,0.3,0.3,0.5c0.1,0.1,0.3,0.2,0.5,0.2s0.4-0.1,0.5-0.2s0.2-0.3,0.3-0.5l0.6,0.1
				c-0.1,0.4-0.2,0.7-0.4,0.9C154.9,26.9,154.6,27,154.2,27z"/>
			<path class="st1" d="M164.7,34.8v-1.4h-4.6v-6h1.1v5h2.7v-5h1.1v5h0.7v2.3h-1V34.8z"/>
			<path class="st1" d="M166.5,33.4v-6h3.9v0.9h-2.9v1.5h2.7v0.9h-2.7v1.7h3v0.9L166.5,33.4L166.5,33.4z"/>
			<path class="st1" d="M171.7,33.4v-6h1.1v2.4h2.8v-2.4h1.1v6h-1.1v-2.6h-2.8v2.6H171.7z"/>
			<path class="st1" d="M179.1,33.4v-5h-1.8v-0.9h4.7v0.9h-1.8v5H179.1z"/>
			<path class="st1" d="M182.7,33.4v-6h1.9c1.5,0,2.2,0.6,2.2,1.7c0,0.6-0.2,1.1-0.6,1.3c-0.4,0.3-1,0.4-1.7,0.4h-0.8v2.5
				L182.7,33.4L182.7,33.4z M183.7,30.1h0.7c0.9,0,1.3-0.3,1.3-0.9c0-0.3-0.1-0.5-0.3-0.7s-0.5-0.2-0.9-0.2h-0.8V30.1z"/>
		</g>
	</g>
	<g>
		<g>
			<path class="st1" d="M59.5,44.8v-5H61c0.6,0,1,0.1,1.3,0.3s0.5,0.6,0.5,1c0,0.5-0.2,0.8-0.5,1.1c-0.3,0.2-0.8,0.3-1.3,0.3h-0.8
				v2.2h-0.7V44.8z M60.2,42h0.7c0.8,0,1.2-0.3,1.2-0.8s-0.4-0.8-1.1-0.8h-0.7V42H60.2z"/>
			<path class="st1" d="M64.7,44.9c-0.5,0-0.9-0.2-1.3-0.5c-0.3-0.3-0.5-0.7-0.5-1.3c0-0.5,0.2-0.9,0.5-1.3c0.3-0.3,0.7-0.5,1.2-0.5
				s0.9,0.2,1.2,0.5c0.3,0.3,0.4,0.7,0.4,1.3c0,0.1,0,0.2,0,0.2h-2.6c0,0.3,0.1,0.5,0.3,0.7s0.5,0.3,0.7,0.3c0.4,0,0.7-0.2,1-0.5
				l0.5,0.4C65.8,44.6,65.3,44.9,64.7,44.9z M63.6,42.8h2c0-0.3-0.1-0.5-0.3-0.7c-0.2-0.2-0.4-0.3-0.7-0.3c-0.3,0-0.5,0.1-0.7,0.3
				C63.8,42.3,63.7,42.6,63.6,42.8z"/>
			<path class="st1" d="M68.8,44.9c-0.5,0-0.9-0.2-1.3-0.5S67,43.6,67,43.1s0.2-0.9,0.5-1.3c0.3-0.3,0.8-0.5,1.3-0.5
				c0.2,0,0.5,0,0.7,0.1s0.4,0.2,0.5,0.4l-0.5,0.4c-0.1-0.1-0.2-0.2-0.3-0.3c-0.1-0.1-0.3-0.1-0.4-0.1c-0.3,0-0.6,0.1-0.8,0.4
				c-0.2,0.2-0.3,0.5-0.3,0.8s0.1,0.6,0.3,0.8c0.2,0.2,0.5,0.4,0.8,0.4s0.6-0.1,0.8-0.4l0.4,0.4C69.7,44.7,69.3,44.9,68.8,44.9z"/>
			<path class="st1" d="M70.7,44.8v-3.3h2.9v3.3h-0.7V42h-1.6v2.8H70.7z"/>
			<path class="st1" d="M74.9,46.5c-0.2,0-0.3,0-0.4,0l0.1-0.6c0.1,0,0.2,0.1,0.3,0.1c0.2,0,0.3,0,0.4-0.1s0.2-0.2,0.2-0.4l0.2-0.6
				l-1.4-3.3H75l1,2.6l0,0l0.9-2.6h0.7l-1.6,4c-0.1,0.3-0.3,0.5-0.4,0.7C75.4,46.4,75.2,46.5,74.9,46.5z"/>
			<path class="st1" d="M80,44.9c-0.6,0-1.1-0.2-1.4-0.6c-0.3-0.3-0.4-0.9-0.4-1.6c0-0.3,0-0.6,0-0.9c0-0.2,0.1-0.5,0.1-0.7
				c0.1-0.2,0.1-0.4,0.3-0.6c0.1-0.2,0.3-0.3,0.4-0.4c0.2-0.1,0.4-0.2,0.7-0.2l0.9-0.1c0.2,0,0.3-0.1,0.4-0.1s0.2-0.1,0.2-0.2
				l0.5,0.1c-0.1,0.2-0.1,0.4-0.3,0.5c-0.1,0.1-0.3,0.2-0.6,0.2L80,40.4c-0.3,0-0.5,0.1-0.7,0.2c-0.2,0.1-0.3,0.3-0.4,0.5
				c-0.1,0.3-0.2,0.6-0.2,1.1l0,0c0.3-0.5,0.7-0.8,1.4-0.8c0.5,0,0.9,0.2,1.2,0.5c0.3,0.3,0.5,0.7,0.5,1.3c0,0.5-0.2,0.9-0.5,1.3
				C80.9,44.7,80.5,44.9,80,44.9z M79.2,44c0.2,0.2,0.5,0.3,0.8,0.3s0.6-0.1,0.8-0.3c0.2-0.2,0.3-0.5,0.3-0.9c0-0.3-0.1-0.6-0.3-0.9
				c-0.2-0.2-0.5-0.3-0.8-0.3s-0.6,0.1-0.8,0.3c-0.2,0.2-0.3,0.5-0.3,0.9C78.9,43.5,79,43.7,79.2,44z"/>
			<path class="st1" d="M82.5,44.8c-0.2,0-0.3,0-0.4,0l0.1-0.6c0.1,0,0.1,0,0.2,0c0.2,0,0.4-0.1,0.5-0.4c0.1-0.2,0.2-0.7,0.2-1.3
				v-1.2h2.6v3.3H85V42h-1.3v0.8c0,0.7-0.1,1.2-0.3,1.5C83.3,44.6,83,44.8,82.5,44.8z"/>
			<path class="st1" d="M86.8,44.8v-3.3h0.7v2.4l0,0l1.7-2.4h0.7v3.3h-0.7v-2.4l0,0l-1.7,2.4H86.8z"/>
			<path class="st1" d="M91,44.8v-3.3h0.7V43l0,0l1.4-1.5H94L92.4,43l1.7,1.7h-0.9l-1.5-1.6l0,0v1.6L91,44.8L91,44.8z"/>
			<path class="st1" d="M94.7,44.8v-3.3h0.7v2.4l0,0l1.7-2.4h0.7v3.3h-0.7v-2.4l0,0l-1.7,2.4H94.7z"/>
			<path class="st1" d="M100.7,44.8v-5h3.1v0.6h-2.4v1.5h0.9c0.6,0,1,0.1,1.3,0.4c0.3,0.2,0.5,0.6,0.5,1.1s-0.2,0.8-0.5,1.1
				c-0.3,0.2-0.8,0.4-1.3,0.4L100.7,44.8L100.7,44.8z M101.4,44.2h0.9c0.8,0,1.2-0.3,1.2-0.8c0-0.3-0.1-0.5-0.3-0.6
				s-0.5-0.2-0.9-0.2h-0.9C101.4,42.6,101.4,44.2,101.4,44.2z"/>
			<path class="st1" d="M106.1,44.9c-0.1,0-0.3,0-0.4-0.1c-0.1,0-0.3-0.1-0.4-0.2c-0.1-0.1-0.2-0.2-0.3-0.3
				c-0.1-0.1-0.1-0.3-0.1-0.5s0-0.4,0.1-0.5s0.2-0.3,0.3-0.3c0.1-0.1,0.3-0.1,0.5-0.2c0.2,0,0.4-0.1,0.6-0.1s0.4,0,0.7,0v-0.1
				c0-0.2-0.1-0.4-0.2-0.5s-0.3-0.2-0.6-0.2c-0.4,0-0.7,0.1-0.9,0.4l-0.4-0.4c0.3-0.3,0.8-0.5,1.4-0.5c0.5,0,0.8,0.1,1,0.4
				c0.2,0.2,0.4,0.6,0.4,0.9v1.4c0,0.3,0,0.5,0,0.7h-0.6c0-0.2-0.1-0.3-0.1-0.5l0,0C106.9,44.7,106.6,44.9,106.1,44.9z M106.2,44.3
				c0.3,0,0.5-0.1,0.7-0.3s0.3-0.4,0.3-0.7v-0.2H107c-1,0-1.5,0.2-1.5,0.6c0,0.2,0.1,0.3,0.2,0.4C105.9,44.3,106,44.3,106.2,44.3z"
				/>
			<path class="st1" d="M108.9,44.8v-3.3h0.7v2.8h1.4v-2.8h0.7v2.8h1.4v-2.8h0.7v3.3H108.9z"/>
			<path class="st1" d="M114.9,44.8v-3.3h0.7V43l0,0l1.4-1.5h0.9l-1.5,1.6l1.7,1.7h-0.9l-1.5-1.6l0,0v1.6H114.9z"/>
			<path class="st1" d="M121.3,44.4c-0.3,0.3-0.8,0.5-1.3,0.5s-0.9-0.2-1.3-0.5c-0.3-0.3-0.5-0.8-0.5-1.3s0.2-0.9,0.5-1.3
				c0.3-0.3,0.8-0.5,1.3-0.5s0.9,0.2,1.3,0.5c0.3,0.3,0.5,0.7,0.5,1.3S121.6,44,121.3,44.4z M119.2,44c0.2,0.2,0.5,0.4,0.8,0.4
				s0.6-0.1,0.8-0.4c0.2-0.2,0.3-0.5,0.3-0.9c0-0.3-0.1-0.6-0.3-0.8c-0.2-0.2-0.5-0.4-0.8-0.4s-0.6,0.1-0.8,0.4
				c-0.2,0.2-0.3,0.5-0.3,0.8C118.9,43.4,119,43.7,119.2,44z"/>
			<path class="st1" d="M122.7,46.5v-5h0.6V42l0,0c0.1-0.2,0.3-0.3,0.5-0.4c0.2-0.1,0.4-0.2,0.7-0.2c0.5,0,0.9,0.2,1.2,0.5
				c0.3,0.3,0.5,0.7,0.5,1.2s-0.2,0.9-0.5,1.3c-0.3,0.3-0.7,0.5-1.2,0.5c-0.2,0-0.5-0.1-0.7-0.2c-0.2-0.1-0.4-0.2-0.5-0.4l0,0v2.2
				C123.3,46.5,122.7,46.5,122.7,46.5z M124.5,44.3c0.3,0,0.6-0.1,0.8-0.4c0.2-0.2,0.3-0.5,0.3-0.9c0-0.3-0.1-0.6-0.3-0.8
				c-0.2-0.2-0.5-0.4-0.8-0.4s-0.6,0.1-0.8,0.4c-0.2,0.2-0.3,0.5-0.3,0.8s0.1,0.6,0.3,0.8C123.9,44.2,124.1,44.3,124.5,44.3z"/>
			<path class="st1" d="M127.8,44.8V42h-1.1v-0.5h2.9V42h-1.1v2.8H127.8z"/>
			<path class="st1" d="M133,44.4c-0.3,0.3-0.8,0.5-1.3,0.5s-0.9-0.2-1.3-0.5c-0.3-0.3-0.5-0.8-0.5-1.3s0.2-0.9,0.5-1.3
				s0.8-0.5,1.3-0.5s0.9,0.2,1.3,0.5s0.5,0.7,0.5,1.3S133.4,44,133,44.4z M130.9,44c0.2,0.2,0.5,0.4,0.8,0.4s0.6-0.1,0.8-0.4
				c0.2-0.2,0.3-0.5,0.3-0.9c0-0.3-0.1-0.6-0.3-0.8s-0.5-0.4-0.8-0.4s-0.6,0.1-0.8,0.4c-0.2,0.2-0.3,0.5-0.3,0.8
				C130.6,43.4,130.7,43.7,130.9,44z"/>
			<path class="st1" d="M136,44.9c-0.5,0-0.9-0.2-1.3-0.5c-0.3-0.3-0.5-0.7-0.5-1.3c0-0.5,0.2-0.9,0.5-1.3c0.3-0.3,0.8-0.5,1.3-0.5
				c0.2,0,0.5,0,0.7,0.1s0.4,0.2,0.5,0.4l-0.5,0.4c-0.1-0.1-0.2-0.2-0.3-0.3s-0.3-0.1-0.4-0.1c-0.3,0-0.6,0.1-0.8,0.4
				c-0.2,0.2-0.3,0.5-0.3,0.8s0.1,0.6,0.3,0.8s0.5,0.4,0.8,0.4s0.6-0.1,0.8-0.4l0.4,0.4C137,44.7,136.6,44.9,136,44.9z"/>
			<path class="st1" d="M138.7,44.8V42h-1.1v-0.5h2.9V42h-1.1v2.8H138.7z"/>
			<path class="st1" d="M142.2,44.9c-0.1,0-0.3,0-0.4-0.1c-0.1,0-0.3-0.1-0.4-0.2c-0.1-0.1-0.2-0.2-0.3-0.3S141,44,141,43.8
				s0-0.4,0.1-0.5s0.2-0.3,0.3-0.3c0.1-0.1,0.3-0.1,0.5-0.2c0.2,0,0.4-0.1,0.6-0.1c0.2,0,0.4,0,0.7,0v-0.1c0-0.2-0.1-0.4-0.2-0.5
				c-0.1-0.1-0.3-0.2-0.6-0.2c-0.4,0-0.7,0.1-0.9,0.4l-0.4-0.4c0.3-0.3,0.8-0.5,1.4-0.5c0.5,0,0.8,0.1,1,0.4
				c0.2,0.2,0.4,0.6,0.4,0.9v1.4c0,0.3,0,0.5,0,0.7h-0.6c0-0.2-0.1-0.3-0.1-0.5l0,0C143.1,44.7,142.7,44.9,142.2,44.9z M142.3,44.3
				c0.3,0,0.5-0.1,0.7-0.3s0.3-0.4,0.3-0.7v-0.2h-0.2c-1,0-1.5,0.2-1.5,0.6c0,0.2,0.1,0.3,0.2,0.4C142,44.3,142.2,44.3,142.3,44.3z"
				/>
			<path class="st1" d="M145,44.8v-3.3h0.7v1.3h1.6v-1.3h0.7v3.3h-0.7v-1.5h-1.6v1.5H145z"/>
		</g>
	</g>
</g>
</svg>
